<svg width="25" height="24" viewBox="0 0 25 24" fill="none" xmlns="http://www.w3.org/2000/svg">
<path d="M9.66669 16.5C8.96669 16.5 8.37502 16.2583 7.89169 15.775C7.40835 15.2917 7.16669 14.7 7.16669 14C7.16669 13.3 7.40835 12.7083 7.89169 12.225C8.37502 11.7417 8.96669 11.5 9.66669 11.5C10.3667 11.5 10.9584 11.7417 11.4417 12.225C11.925 12.7083 12.1667 13.3 12.1667 14C12.1667 14.7 11.925 15.2917 11.4417 15.775C10.9584 16.2583 10.3667 16.5 9.66669 16.5ZM5.66669 22C5.11669 22 4.64585 21.8042 4.25419 21.4125C3.86252 21.0208 3.66669 20.55 3.66669 20V6C3.66669 5.45 3.86252 4.97917 4.25419 4.5875C4.64585 4.19583 5.11669 4 5.66669 4H6.66669V2H8.66669V4H16.6667V2H18.6667V4H19.6667C20.2167 4 20.6875 4.19583 21.0792 4.5875C21.4709 4.97917 21.6667 5.45 21.6667 6V20C21.6667 20.55 21.4709 21.0208 21.0792 21.4125C20.6875 21.8042 20.2167 22 19.6667 22H5.66669ZM5.66669 20H19.6667V10H5.66669V20Z" fill="white"/>
</svg>
