<svg width="18" height="16" viewBox="0 0 18 16" fill="none" xmlns="http://www.w3.org/2000/svg">
<path d="M9.11935 14.9992H16.3521M1.8866 14.9992H3.23233C3.62546 14.9992 3.82202 14.9992 4.007 14.9547C4.171 14.9154 4.32778 14.8504 4.47159 14.7623C4.63379 14.6629 4.77278 14.5239 5.05076 14.2459L15.1467 4.14999C15.8125 3.48423 15.8125 2.40482 15.1467 1.73906C14.4809 1.07331 13.4015 1.07331 12.7358 1.73906L2.63982 11.835C2.36184 12.113 2.22284 12.252 2.12345 12.4142C2.03532 12.558 1.97038 12.7148 1.93101 12.8788C1.8866 13.0638 1.8866 13.2603 1.8866 13.6534V14.9992Z" stroke="black" stroke-width="2" stroke-linecap="round" stroke-linejoin="round"/>
</svg>
