<svg width="24" height="24" viewBox="0 0 24 24" fill="none" xmlns="http://www.w3.org/2000/svg">
<path d="M12.0312 1.49997C11.8421 1.49425 11.6551 1.54234 11.4922 1.63864L1.99218 7.22653C1.87433 7.29036 1.77051 7.37722 1.68688 7.48197C1.60326 7.58671 1.54154 7.70719 1.5054 7.83625C1.46926 7.96532 1.45943 8.10033 1.47649 8.23327C1.49355 8.3662 1.53716 8.49436 1.60473 8.61011C1.6723 8.72586 1.76244 8.82685 1.8698 8.90708C1.97717 8.98731 2.09956 9.04514 2.22972 9.07713C2.35987 9.10913 2.49513 9.11463 2.62745 9.09332C2.75977 9.07202 2.88646 9.02433 3 8.95309V20C3.00002 20.2652 3.10539 20.5195 3.29292 20.707C3.48045 20.8946 3.73479 20.9999 4 21H20C20.2652 20.9999 20.5195 20.8946 20.7071 20.707C20.8946 20.5195 21 20.2652 21 20V8.95309C21.1135 9.02433 21.2402 9.07202 21.3725 9.09333C21.5049 9.11463 21.6401 9.10913 21.7703 9.07713C21.9004 9.04514 22.0228 8.98731 22.1302 8.90708C22.2376 8.82685 22.3277 8.72586 22.3953 8.61011C22.4628 8.49436 22.5064 8.36621 22.5235 8.23327C22.5406 8.10033 22.5307 7.96532 22.4946 7.83625C22.4585 7.70719 22.3967 7.58671 22.3131 7.48197C22.2295 7.37722 22.1257 7.29036 22.0078 7.22653L12.5078 1.63864C12.3631 1.55311 12.1992 1.50541 12.0312 1.49997ZM12 3.66012L19 7.77731V19H16V12C16 11.7348 15.8946 11.4804 15.7071 11.2929C15.5195 11.1054 15.2652 11 15 11H9C8.73479 11 8.48045 11.1054 8.29292 11.2929C8.10539 11.4804 8.00002 11.7348 8 12V19H5V7.77731L12 3.66012ZM10 13H14V19H10V13Z" fill="white"/>
</svg>
