<svg width="25" height="24" viewBox="0 0 25 24" fill="none" xmlns="http://www.w3.org/2000/svg">
<path d="M12.3333 12C11.2333 12 10.2917 11.6083 9.50834 10.825C8.72501 10.0417 8.33334 9.1 8.33334 8C8.33334 6.9 8.72501 5.95833 9.50834 5.175C10.2917 4.39167 11.2333 4 12.3333 4C13.4333 4 14.375 4.39167 15.1583 5.175C15.9417 5.95833 16.3333 6.9 16.3333 8C16.3333 9.1 15.9417 10.0417 15.1583 10.825C14.375 11.6083 13.4333 12 12.3333 12ZM4.33334 20V17.2C4.33334 16.6333 4.47918 16.1125 4.77084 15.6375C5.06251 15.1625 5.45001 14.8 5.93334 14.55C6.96668 14.0333 8.01668 13.6458 9.08334 13.3875C10.15 13.1292 11.2333 13 12.3333 13C13.4333 13 14.5167 13.1292 15.5833 13.3875C16.65 13.6458 17.7 14.0333 18.7333 14.55C19.2167 14.8 19.6042 15.1625 19.8958 15.6375C20.1875 16.1125 20.3333 16.6333 20.3333 17.2V20H4.33334ZM6.33334 18H18.3333V17.2C18.3333 17.0167 18.2875 16.85 18.1958 16.7C18.1042 16.55 17.9833 16.4333 17.8333 16.35C16.9333 15.9 16.025 15.5625 15.1083 15.3375C14.1917 15.1125 13.2667 15 12.3333 15C11.4 15 10.475 15.1125 9.55834 15.3375C8.64168 15.5625 7.73334 15.9 6.83334 16.35C6.68334 16.4333 6.56251 16.55 6.47084 16.7C6.37918 16.85 6.33334 17.0167 6.33334 17.2V18ZM12.3333 10C12.8833 10 13.3542 9.80417 13.7458 9.4125C14.1375 9.02083 14.3333 8.55 14.3333 8C14.3333 7.45 14.1375 6.97917 13.7458 6.5875C13.3542 6.19583 12.8833 6 12.3333 6C11.7833 6 11.3125 6.19583 10.9208 6.5875C10.5292 6.97917 10.3333 7.45 10.3333 8C10.3333 8.55 10.5292 9.02083 10.9208 9.4125C11.3125 9.80417 11.7833 10 12.3333 10Z" fill="white"/>
</svg>
